# Blender 4.0.2
# www.blender.org
mtllib cartucho_final.mtl
o Cartridge
v -0.595050 -0.440000 0.091679
v -0.594164 -0.408488 0.100000
v -0.640000 -0.393577 0.088261
v -0.594965 -0.437601 0.094863
v -0.594767 -0.430770 0.097563
v -0.612252 -0.436466 0.090911
v -0.611555 -0.432722 0.094203
v -0.611018 -0.427700 0.096866
v -0.620746 -0.422880 0.095743
v -0.611705 -0.403063 0.099106
v -0.626575 -0.398325 0.096562
v -0.594486 -0.420547 0.099367
v -0.611284 -0.416798 0.098127
v -0.624740 -0.413698 0.096413
v -0.636578 -0.411342 0.089062
v -0.626835 -0.426403 0.089992
v -0.636511 -0.394994 0.092753
v -0.631522 -0.412236 0.093158
v -0.624857 -0.425725 0.093590
v 0.594852 -0.440000 0.092946
v 0.640000 -0.393320 0.089391
v 0.594389 -0.408162 0.100000
v 0.612130 -0.436447 0.092148
v 0.626777 -0.426328 0.091193
v 0.594810 -0.437576 0.095645
v 0.611475 -0.432668 0.094981
v 0.624827 -0.425628 0.094358
v 0.620736 -0.422746 0.096253
v 0.636528 -0.394683 0.093451
v 0.626641 -0.397983 0.096893
v 0.636563 -0.411184 0.090225
v 0.631525 -0.412046 0.093893
v 0.624766 -0.413486 0.096806
v 0.594559 -0.420346 0.099463
v 0.594707 -0.430675 0.097934
v 0.611843 -0.402716 0.099192
v 0.611333 -0.416587 0.098351
v 0.610990 -0.427594 0.097277
v 0.640000 0.393577 0.088261
v 0.595050 0.440000 0.091678
v 0.594164 0.408488 0.100000
v 0.636578 0.411342 0.089061
v 0.626835 0.426403 0.089992
v 0.636511 0.394994 0.092753
v 0.631522 0.412236 0.093158
v 0.624857 0.425725 0.093590
v 0.620746 0.422880 0.095743
v 0.594965 0.437601 0.094863
v 0.594767 0.430770 0.097563
v 0.612252 0.436466 0.090911
v 0.611555 0.432722 0.094203
v 0.611018 0.427700 0.096866
v 0.611705 0.403063 0.099106
v 0.626575 0.398325 0.096562
v 0.594486 0.420547 0.099367
v 0.611284 0.416798 0.098127
v 0.624740 0.413698 0.096413
v -0.594389 0.408162 0.100000
v -0.594852 0.440000 0.092946
v -0.640000 0.393320 0.089391
v -0.594559 0.420346 0.099463
v -0.594707 0.430675 0.097934
v -0.611843 0.402716 0.099192
v -0.611333 0.416587 0.098351
v -0.610990 0.427594 0.097277
v -0.620736 0.422746 0.096252
v -0.612130 0.436447 0.092148
v -0.626777 0.426328 0.091193
v -0.594810 0.437576 0.095645
v -0.611475 0.432668 0.094981
v -0.624827 0.425628 0.094358
v -0.636528 0.394683 0.093451
v -0.626641 0.397983 0.096893
v -0.636563 0.411184 0.090225
v -0.631525 0.412046 0.093893
v -0.624766 0.413486 0.096806
v -0.594389 -0.408162 -0.100000
v -0.594852 -0.440000 -0.092946
v -0.640000 -0.393320 -0.089391
v -0.594560 -0.420346 -0.099463
v -0.594708 -0.430675 -0.097934
v -0.611843 -0.402716 -0.099192
v -0.611333 -0.416587 -0.098351
v -0.610990 -0.427594 -0.097277
v -0.620736 -0.422746 -0.096252
v -0.612130 -0.436447 -0.092148
v -0.626777 -0.426328 -0.091193
v -0.594810 -0.437576 -0.095645
v -0.611475 -0.432668 -0.094981
v -0.624827 -0.425628 -0.094358
v -0.636528 -0.394683 -0.093451
v -0.626641 -0.397983 -0.096893
v -0.636563 -0.411184 -0.090225
v -0.631525 -0.412046 -0.093893
v -0.624766 -0.413486 -0.096806
v 0.595050 -0.440000 -0.091678
v 0.594164 -0.408488 -0.100000
v 0.640000 -0.393577 -0.088261
v 0.594965 -0.437601 -0.094863
v 0.594767 -0.430770 -0.097563
v 0.612252 -0.436466 -0.090911
v 0.611555 -0.432722 -0.094203
v 0.611018 -0.427700 -0.096866
v 0.620746 -0.422880 -0.095743
v 0.611705 -0.403063 -0.099106
v 0.626575 -0.398325 -0.096562
v 0.594486 -0.420547 -0.099367
v 0.611284 -0.416798 -0.098127
v 0.624740 -0.413698 -0.096413
v 0.636578 -0.411342 -0.089061
v 0.626835 -0.426403 -0.089992
v 0.636511 -0.394994 -0.092753
v 0.631522 -0.412236 -0.093157
v 0.624857 -0.425725 -0.093590
v 0.594389 0.408162 -0.100000
v 0.594852 0.440000 -0.092946
v 0.640000 0.393320 -0.089391
v 0.594560 0.420346 -0.099463
v 0.594708 0.430675 -0.097934
v 0.611843 0.402716 -0.099192
v 0.611333 0.416587 -0.098351
v 0.610990 0.427594 -0.097277
v 0.620736 0.422746 -0.096253
v 0.612130 0.436447 -0.092148
v 0.626777 0.426328 -0.091193
v 0.594810 0.437576 -0.095645
v 0.611475 0.432668 -0.094981
v 0.624827 0.425628 -0.094358
v 0.636528 0.394683 -0.093451
v 0.626641 0.397983 -0.096893
v 0.636563 0.411184 -0.090225
v 0.631525 0.412046 -0.093893
v 0.624766 0.413486 -0.096806
v -0.640000 0.393577 -0.088261
v -0.595050 0.440000 -0.091679
v -0.594164 0.408488 -0.100000
v -0.636578 0.411342 -0.089062
v -0.626835 0.426403 -0.089992
v -0.636511 0.394994 -0.092753
v -0.631522 0.412236 -0.093158
v -0.624857 0.425725 -0.093590
v -0.620746 0.422880 -0.095743
v -0.594965 0.437601 -0.094863
v -0.594767 0.430770 -0.097563
v -0.612252 0.436466 -0.090911
v -0.611555 0.432722 -0.094203
v -0.611018 0.427700 -0.096866
v -0.611705 0.403063 -0.099106
v -0.626575 0.398325 -0.096562
v -0.594486 0.420547 -0.099367
v -0.611284 0.416798 -0.098127
v -0.624740 0.413698 -0.096413
vn -0.9350 -0.0810 -0.3454
vn -0.9380 -0.0837 0.3364
vn -0.9350 0.0810 0.3454
vn -0.9380 0.0837 -0.3364
vn 0.9350 -0.0810 0.3454
vn 0.9380 -0.0838 -0.3364
vn 0.9350 0.0810 -0.3454
vn -0.1044 0.9233 0.3696
vn 0.1073 0.9297 0.3524
vn 0.1044 0.9233 -0.3697
vn -0.1044 -0.9233 -0.3696
vn 0.1073 -0.9297 -0.3524
vn 0.1044 -0.9233 0.3697
vn 0.9380 0.0838 0.3364
vn -0.1073 0.9297 -0.3524
vn -0.1073 -0.9297 0.3524
vn -0.0878 -0.5814 0.8089
vn -0.2712 -0.5603 0.7826
vn -0.3753 -0.8649 0.3334
vn -0.4813 -0.4457 0.7548
vn -0.6978 -0.6404 0.3209
vn -0.1663 -0.2779 0.9461
vn -0.2713 -0.2378 0.9327
vn -0.8824 -0.3265 0.3387
vn -0.5783 -0.2128 0.7876
vn -0.5855 -0.0631 0.8082
vn -0.3005 -0.1211 0.9461
vn 0.3721 -0.8528 0.3665
vn 0.2544 -0.5104 0.8214
vn 0.0817 -0.5533 0.8290
vn 0.6921 -0.6316 0.3495
vn 0.4516 -0.4127 0.7910
vn 0.5671 -0.0571 0.8217
vn 0.5426 -0.1960 0.8168
vn 0.8745 -0.3217 0.3630
vn 0.8824 0.3265 0.3387
vn 0.5783 0.2128 0.7876
vn 0.5855 0.0631 0.8082
vn 0.6978 0.6404 0.3209
vn 0.4813 0.4457 0.7548
vn 0.2713 0.2378 0.9327
vn 0.3005 0.1211 0.9461
vn 0.0878 0.5814 0.8089
vn 0.2712 0.5603 0.7826
vn 0.3753 0.8649 0.3334
vn 0.1663 0.2779 0.9461
vn -0.3721 0.8528 0.3665
vn -0.2544 0.5104 0.8214
vn -0.0817 0.5533 0.8289
vn -0.6921 0.6316 0.3495
vn -0.4516 0.4126 0.7911
vn -0.5671 0.0571 0.8217
vn -0.5426 0.1960 0.8168
vn -0.8745 0.3217 0.3630
vn -0.3721 -0.8528 -0.3665
vn -0.2544 -0.5104 -0.8214
vn -0.0817 -0.5533 -0.8289
vn -0.6921 -0.6316 -0.3495
vn -0.4516 -0.4126 -0.7911
vn -0.5671 -0.0571 -0.8217
vn -0.5426 -0.1960 -0.8168
vn -0.8745 -0.3217 -0.3630
vn 0.0878 -0.5814 -0.8089
vn 0.2712 -0.5603 -0.7826
vn 0.3753 -0.8649 -0.3334
vn 0.4813 -0.4457 -0.7548
vn 0.6978 -0.6404 -0.3209
vn 0.1663 -0.2779 -0.9461
vn 0.2713 -0.2378 -0.9327
vn 0.8824 -0.3265 -0.3387
vn 0.5783 -0.2128 -0.7876
vn 0.5855 -0.0631 -0.8082
vn 0.3005 -0.1211 -0.9461
vn 0.3721 0.8528 -0.3665
vn 0.2544 0.5104 -0.8214
vn 0.0817 0.5533 -0.8290
vn 0.6921 0.6316 -0.3495
vn 0.4516 0.4127 -0.7910
vn 0.5671 0.0571 -0.8217
vn 0.5426 0.1960 -0.8168
vn 0.8745 0.3217 -0.3630
vn -0.8824 0.3265 -0.3387
vn -0.5783 0.2128 -0.7876
vn -0.5855 0.0631 -0.8082
vn -0.6978 0.6404 -0.3209
vn -0.4813 0.4457 -0.7548
vn -0.2713 0.2378 -0.9327
vn -0.3005 0.1211 -0.9461
vn -0.0878 0.5814 -0.8089
vn -0.2712 0.5603 -0.7826
vn -0.3753 0.8649 -0.3334
vn -0.1663 0.2779 -0.9461
vn -0.0329 -0.0306 0.9990
vn 0.0329 0.0306 0.9990
vn -0.0306 0.0280 0.9991
vn 0.0306 -0.0280 0.9991
vn -0.0570 -0.2704 0.9611
vn -0.1117 -0.0278 0.9934
vn -0.1227 -0.0963 0.9878
vn -0.0418 -0.1065 0.9934
vn -0.2779 -0.0344 0.9600
vn 0.1504 -0.2421 0.9585
vn 0.0512 -0.2511 0.9666
vn 0.2457 -0.2085 0.9467
vn 0.2639 -0.0294 0.9641
vn 0.2734 -0.1060 0.9561
vn 0.0373 -0.0984 0.9944
vn 0.1102 -0.0823 0.9905
vn 0.1054 -0.0236 0.9942
vn 0.2779 0.0344 0.9600
vn 0.0570 0.2704 0.9611
vn 0.1117 0.0278 0.9934
vn 0.1227 0.0963 0.9878
vn 0.0418 0.1065 0.9934
vn -0.0373 0.0984 0.9944
vn -0.1102 0.0823 0.9905
vn -0.1054 0.0236 0.9942
vn -0.0512 0.2511 0.9666
vn -0.1504 0.2421 0.9585
vn -0.2733 0.1060 0.9561
vn -0.2639 0.0294 0.9641
vn -0.2457 0.2085 0.9467
vn 0.0329 -0.0306 -0.9990
vn -0.0329 0.0306 -0.9990
vn 0.0306 0.0280 -0.9991
vn -0.0306 -0.0280 -0.9991
vn -0.0373 -0.0984 -0.9944
vn -0.1102 -0.0823 -0.9905
vn -0.1054 -0.0236 -0.9942
vn -0.0512 -0.2511 -0.9666
vn -0.1504 -0.2421 -0.9585
vn -0.2733 -0.1060 -0.9561
vn -0.2639 -0.0294 -0.9641
vn -0.2457 -0.2085 -0.9467
vn 0.0570 -0.2704 -0.9611
vn 0.1117 -0.0278 -0.9934
vn 0.1227 -0.0963 -0.9878
vn 0.0418 -0.1065 -0.9934
vn 0.2779 -0.0344 -0.9600
vn 0.0373 0.0984 -0.9944
vn 0.1102 0.0823 -0.9905
vn 0.1054 0.0236 -0.9942
vn 0.0512 0.2511 -0.9666
vn 0.1504 0.2421 -0.9585
vn 0.2734 0.1060 -0.9561
vn 0.2639 0.0294 -0.9641
vn 0.2457 0.2085 -0.9467
vn -0.2779 0.0344 -0.9600
vn -0.0570 0.2704 -0.9611
vn -0.1117 0.0278 -0.9934
vn -0.1227 0.0963 -0.9878
vn -0.0418 0.1065 -0.9934
vt 0.010000 0.010000
vt 0.033277 0.033264
vt 0.966723 0.966736
vt 0.033101 0.966363
vt 0.966899 0.033637
vt 0.032648 0.000000
vt 0.032804 0.007805
vt 0.020038 0.011313
vt 0.019617 0.005575
vt 0.019499 0.039463
vt 0.019829 0.023769
vt 0.033024 0.019486
vt 0.007818 0.044877
vt 0.009260 0.027311
vt 0.012397 0.016820
vt 0.000013 0.048682
vt 0.003932 0.028982
vt 0.967230 0.000029
vt 0.980321 0.005636
vt 0.979940 0.011434
vt 0.967149 0.007914
vt 0.990809 0.013680
vt 0.987595 0.016973
vt 1.000000 0.049038
vt 0.992234 0.045267
vt 0.990761 0.027554
vt 0.996070 0.029199
vt 0.967033 0.019715
vt 0.980209 0.024010
vt 0.980610 0.039859
vt 0.999987 0.951317
vt 0.996068 0.971018
vt 0.990740 0.972689
vt 0.992182 0.955123
vt 0.967352 1.000000
vt 0.967196 0.992195
vt 0.979962 0.988687
vt 0.980383 0.994425
vt 0.980501 0.960537
vt 0.980171 0.976231
vt 0.966976 0.980514
vt 0.987603 0.983180
vt 0.032967 0.980285
vt 0.019791 0.975990
vt 0.019390 0.960141
vt 0.032851 0.992086
vt 0.020060 0.988566
vt 0.009239 0.972446
vt 0.007766 0.954733
vt 0.012405 0.983027
vt 0.032770 0.999971
vt 0.019679 0.994364
vt 0.009191 0.986320
vt 0.000000 0.950962
vt 0.003930 0.970801
vt 0.967034 0.019715
vt 0.967150 0.007914
vt 0.032966 0.980285
vt 0.032850 0.992086
s 1
usemtl Black
f 79/1/1 3/1/2 60/1/3
f 79/1/1 60/1/3 134/1/4
f 21/1/5 98/1/6 117/1/7
f 59/1/8 40/1/9 116/1/10
f 78/1/11 96/1/12 20/1/13
f 21/1/5 117/1/7 39/1/14
f 59/1/8 116/1/10 135/1/15
f 1/1/16 4/1/17 7/1/18 6/1/19
f 6/1/19 7/1/18 19/1/20 16/1/21
f 7/1/18 8/1/22 9/1/23 19/1/20
f 3/1/2 15/1/24 18/1/25 17/1/26
f 15/1/24 16/1/21 19/1/20 18/1/25
f 18/1/25 19/1/20 9/1/23 14/1/27
f 20/1/13 23/1/28 26/1/29 25/1/30
f 23/1/28 24/1/31 27/1/32 26/1/29
f 21/1/5 29/1/33 32/1/34 31/1/35
f 31/1/35 32/1/34 27/1/32 24/1/31
f 39/1/14 42/1/36 45/1/37 44/1/38
f 42/1/36 43/1/39 46/1/40 45/1/37
f 45/1/37 46/1/40 47/1/41 57/1/42
f 40/1/9 48/1/43 51/1/44 50/1/45
f 50/1/45 51/1/44 46/1/40 43/1/39
f 51/1/44 52/1/46 47/1/41 46/1/40
f 59/1/8 67/1/47 70/1/48 69/1/49
f 67/1/47 68/1/50 71/1/51 70/1/48
f 60/1/3 72/1/52 75/1/53 74/1/54
f 74/1/54 75/1/53 71/1/51 68/1/50
f 78/1/11 86/1/55 89/1/56 88/1/57
f 86/1/55 87/1/58 90/1/59 89/1/56
f 79/1/1 91/1/60 94/1/61 93/1/62
f 93/1/62 94/1/61 90/1/59 87/1/58
f 96/1/12 99/1/63 102/1/64 101/1/65
f 101/1/65 102/1/64 114/1/66 111/1/67
f 102/1/64 103/1/68 104/1/69 114/1/66
f 98/1/6 110/1/70 113/1/71 112/1/72
f 110/1/70 111/1/67 114/1/66 113/1/71
f 113/1/71 114/1/66 104/1/69 109/1/73
f 116/1/10 124/1/74 127/1/75 126/1/76
f 124/1/74 125/1/77 128/1/78 127/1/75
f 117/1/7 129/1/79 132/1/80 131/1/81
f 131/1/81 132/1/80 128/1/78 125/1/77
f 134/1/4 137/1/82 140/1/83 139/1/84
f 137/1/82 138/1/85 141/1/86 140/1/83
f 140/1/83 141/1/86 142/1/87 152/1/88
f 135/1/15 143/1/89 146/1/90 145/1/91
f 145/1/91 146/1/90 141/1/86 138/1/85
f 146/1/90 147/1/92 142/1/87 141/1/86
f 1/1/16 20/1/13 25/1/30 4/1/17
f 17/1/26 72/1/52 60/1/3 3/1/2
f 79/1/1 134/1/4 139/1/84 91/1/60
f 88/1/57 99/1/63 96/1/12 78/1/11
f 112/1/72 129/1/79 117/1/7 98/1/6
f 21/1/5 39/1/14 44/1/38 29/1/33
f 126/1/76 143/1/89 135/1/15 116/1/10
f 3/1/2 79/1/1 93/1/62 15/1/24
f 15/1/24 93/1/62 87/1/58 16/1/21
f 16/1/21 87/1/58 86/1/55 6/1/19
f 6/1/19 86/1/55 78/1/11 1/1/16
f 40/1/9 59/1/8 69/1/49 48/1/43
f 20/1/13 96/1/12 101/1/65 23/1/28
f 23/1/28 101/1/65 111/1/67 24/1/31
f 24/1/31 111/1/67 110/1/70 31/1/35
f 31/1/35 110/1/70 98/1/6 21/1/5
f 39/1/14 117/1/7 131/1/81 42/1/36
f 42/1/36 131/1/81 125/1/77 43/1/39
f 43/1/39 125/1/77 124/1/74 50/1/45
f 50/1/45 124/1/74 116/1/10 40/1/9
f 59/1/8 135/1/15 145/1/91 67/1/47
f 67/1/47 145/1/91 138/1/85 68/1/50
f 68/1/50 138/1/85 137/1/82 74/1/54
f 74/1/54 137/1/82 134/1/4 60/1/3
f 78/1/11 20/1/13 1/1/16
usemtl Front
f 2/2/93 41/3/94 58/4/95
f 2/2/93 22/5/96 41/3/94
f 4/6/17 5/7/97 8/8/22 7/9/18
f 2/2/93 10/10/98 13/11/99 12/12/100
f 10/10/98 11/13/101 14/14/27 13/11/99
f 12/12/100 13/11/99 8/8/22 5/7/97
f 13/11/99 14/14/27 9/15/23 8/8/22
f 17/16/26 18/17/25 14/14/27 11/13/101
f 25/18/30 26/19/29 38/20/102 35/21/103
f 26/19/29 27/22/32 28/23/104 38/20/102
f 29/24/33 30/25/105 33/26/106 32/27/34
f 32/27/34 33/26/106 28/23/104 27/22/32
f 22/5/96 34/28/107 37/29/108 36/30/109
f 34/28/107 35/21/103 38/20/102 37/29/108
f 36/30/109 37/29/108 33/26/106 30/25/105
f 37/29/108 38/20/102 28/23/104 33/26/106
f 44/31/38 45/32/37 57/33/42 54/34/110
f 48/35/43 49/36/111 52/37/46 51/38/44
f 41/3/94 53/39/112 56/40/113 55/41/114
f 53/39/112 54/34/110 57/33/42 56/40/113
f 55/41/114 56/40/113 52/37/46 49/36/111
f 56/40/113 57/33/42 47/42/41 52/37/46
f 58/4/95 61/43/115 64/44/116 63/45/117
f 61/43/115 62/46/118 65/47/119 64/44/116
f 63/45/117 64/44/116 76/48/120 73/49/121
f 64/44/116 65/47/119 66/50/122 76/48/120
f 69/51/49 70/52/48 65/47/119 62/46/118
f 70/52/48 71/53/51 66/50/122 65/47/119
f 72/54/52 73/49/121 76/48/120 75/55/53
f 75/55/53 76/48/120 66/50/122 71/53/51
f 4/6/17 25/18/30 35/21/103 5/7/97
f 5/7/97 35/21/103 34/28/107 12/12/100
f 12/12/100 34/28/107 22/5/96 2/2/93
f 2/2/93 58/4/95 63/45/117 10/10/98
f 10/10/98 63/45/117 73/49/121 11/13/101
f 11/13/101 73/49/121 72/54/52 17/16/26
f 29/24/33 44/31/38 54/34/110 30/25/105
f 30/25/105 54/34/110 53/39/112 36/30/109
f 36/30/109 53/39/112 41/3/94 22/5/96
f 48/35/43 69/51/49 62/46/118 49/36/111
f 49/36/111 62/46/118 61/43/115 55/41/114
f 55/41/114 61/43/115 58/4/95 41/3/94
usemtl Back
f 97/2/123 136/3/124 115/4/125
f 97/2/123 77/5/126 136/3/124
f 77/5/126 80/56/127 83/29/128 82/30/129
f 80/56/127 81/57/130 84/20/131 83/29/128
f 82/30/129 83/29/128 95/26/132 92/25/133
f 83/29/128 84/20/131 85/23/134 95/26/132
f 88/18/57 89/19/56 84/20/131 81/57/130
f 89/19/56 90/22/59 85/23/134 84/20/131
f 91/24/60 92/25/133 95/26/132 94/27/61
f 94/27/61 95/26/132 85/23/134 90/22/59
f 99/6/63 100/7/135 103/8/68 102/9/64
f 97/2/123 105/10/136 108/11/137 107/12/138
f 105/10/136 106/13/139 109/14/73 108/11/137
f 107/12/138 108/11/137 103/8/68 100/7/135
f 108/11/137 109/14/73 104/15/69 103/8/68
f 112/16/72 113/17/71 109/14/73 106/13/139
f 115/4/125 118/58/140 121/44/141 120/45/142
f 118/58/140 119/59/143 122/47/144 121/44/141
f 120/45/142 121/44/141 133/48/145 130/49/146
f 121/44/141 122/47/144 123/50/147 133/48/145
f 126/51/76 127/52/75 122/47/144 119/59/143
f 127/52/75 128/53/78 123/50/147 122/47/144
f 129/54/79 130/49/146 133/48/145 132/55/80
f 132/55/80 133/48/145 123/50/147 128/53/78
f 139/31/84 140/32/83 152/33/88 149/34/148
f 143/35/89 144/36/149 147/37/92 146/38/90
f 136/3/124 148/39/150 151/40/151 150/41/152
f 148/39/150 149/34/148 152/33/88 151/40/151
f 150/41/152 151/40/151 147/37/92 144/36/149
f 151/40/151 152/33/88 142/42/87 147/37/92
f 91/24/60 139/31/84 149/34/148 92/25/133
f 92/25/133 149/34/148 148/39/150 82/30/129
f 82/30/129 148/39/150 136/3/124 77/5/126
f 77/5/126 97/2/123 107/12/138 80/56/127
f 80/56/127 107/12/138 100/7/135 81/57/130
f 81/57/130 100/7/135 99/6/63 88/18/57
f 97/2/123 115/4/125 120/45/142 105/10/136
f 105/10/136 120/45/142 130/49/146 106/13/139
f 106/13/139 130/49/146 129/54/79 112/16/72
f 115/4/125 136/3/124 150/41/152 118/58/140
f 118/58/140 150/41/152 144/36/149 119/59/143
f 119/59/143 144/36/149 143/35/89 126/51/76
